<svg width="180" height="30" viewBox="0 0 180 30" fill="none" xmlns="http://www.w3.org/2000/svg">
<g clip-path="url(#clip0_27661_28717)">
<path d="M28.6059 3.93081L25.037 0.965987C23.4894 -0.320512 21.2436 -0.320512 19.6958 0.965987L15.3783 4.55224L11.0644 0.965987C9.51682 -0.320512 7.2744 -0.322291 5.72503 0.96243L2.14743 3.93075C0.791214 5.0554 0.0078125 6.725 0.0078125 8.48679V15.8705C0.0078125 17.6291 0.789968 19.2965 2.14222 20.4207L11.5902 28.2757C13.7837 30.0985 16.9661 30.0985 19.158 28.2757L28.6059 20.4207C29.9593 19.2956 30.742 17.6268 30.742 15.8669V8.48323C30.742 6.72494 29.9586 5.05534 28.6059 3.93075H28.6058L28.6059 3.93081ZM27.9565 15.379C27.9565 16.6203 27.403 17.7988 26.4488 18.5926L18.0454 25.5789C16.4977 26.8654 14.252 26.8654 12.7025 25.5789L4.29909 18.5926C3.34512 17.7988 2.79317 16.6203 2.79317 15.379V8.97584C2.79317 7.7328 3.34684 6.55426 4.30436 5.76042L6.83557 3.66088C7.73914 2.91062 9.04835 2.91228 9.95008 3.66266L13.1986 6.36282L8.45816 10.299C7.28655 11.2739 7.28477 13.0723 8.45638 14.0472L13.8063 18.5057C14.7097 19.2578 16.0207 19.2594 16.9243 18.5074L22.2897 14.0472C23.4613 13.0723 23.4613 11.2739 22.2897 10.299L19.685 8.13375C19.5561 8.02656 19.3689 8.02644 19.24 8.13375L17.6052 9.49174C17.4376 9.63101 17.4376 9.88813 17.6052 10.0273L19.5427 11.6379C19.8788 11.9165 19.8788 12.43 19.5427 12.7086L15.8137 15.8109C15.5542 16.025 15.18 16.025 14.9223 15.8092L11.2037 12.7103C10.8694 12.4318 10.8694 11.9182 11.2055 11.6396L14.2156 9.13965L14.9328 8.54424L17.5564 6.3646L19.6403 4.63417L20.8085 3.66277C21.7119 2.9124 23.0212 2.9124 23.923 3.66277L26.449 5.76054C27.403 6.55437 27.9567 7.73125 27.9567 8.97418V15.3789H27.9564L27.9565 15.379Z" fill="black"/>
<path d="M41.8509 3.09887H48.5503C48.7216 3.09887 48.8606 3.23772 48.8606 3.40911V5.43674C48.8606 5.60802 48.7217 5.74698 48.5503 5.74698H42.2417C40.914 5.74698 39.8378 6.82326 39.8378 8.1509V10.2943C39.8378 10.4656 39.9767 10.6046 40.1481 10.6046H47.1243C47.2956 10.6046 47.4346 10.7434 47.4346 10.9148V12.7953C47.4346 12.9666 47.2957 13.1056 47.1243 13.1056H40.1481C39.9768 13.1056 39.8378 13.2444 39.8378 13.4158V20.5679C39.8378 20.7391 39.699 20.8781 39.5276 20.8781H37.3532C37.1819 20.8781 37.043 20.7393 37.043 20.5679V7.90664C37.043 5.2513 39.1956 3.09863 41.851 3.09863V3.09875L41.8509 3.09887Z" fill="black"/>
<path d="M72.2387 8.93673C71.4377 8.21771 70.3424 7.85791 68.9532 7.85791C68.915 7.85791 68.8773 7.85874 68.8395 7.85969C68.8027 7.85886 68.7658 7.85791 68.7288 7.85791C67.3669 7.85791 66.1304 8.39462 65.2189 9.2679C65.1203 9.36246 64.9567 9.29304 64.9567 9.15638V8.5113C64.9567 8.34002 64.8179 8.20106 64.6465 8.20106H62.6188C62.4476 8.20106 62.3086 8.3399 62.3086 8.5113V20.5669C62.3086 20.7382 62.4474 20.8772 62.6188 20.8772H64.7936C64.9649 20.8772 65.1039 20.7383 65.1039 20.5669V13.399C65.1039 12.9415 65.1775 12.5083 65.3246 12.0996C65.4717 11.6913 65.6758 11.3356 65.9375 11.033C66.1987 10.7307 66.5175 10.4935 66.8936 10.3218C67.2695 10.1502 67.6943 10.0644 68.1686 10.0644C69.0022 10.0644 69.6151 10.2893 70.0076 10.7387C70.3999 11.1885 70.6121 11.9118 70.6451 12.9086V20.5669C70.6451 20.7381 70.784 20.8771 70.9554 20.8771H73.1301C73.3014 20.8771 73.4404 20.7383 73.4404 20.5669V12.173C73.4404 10.7349 73.0397 9.65604 72.2389 8.93655L72.2388 8.93667L72.2387 8.93673Z" fill="black"/>
<path d="M60.2568 8.50807V22.0248C60.2568 24.6807 58.1044 26.8332 55.4492 26.8332H50.1127C49.9411 26.8332 49.8019 26.694 49.8019 26.5224V24.4956C49.8019 24.324 49.9412 24.1848 50.1127 24.1848H55.0578C56.3857 24.1848 57.6084 23.0827 57.6084 21.7547V19.9249C57.6084 19.7873 57.4437 19.7152 57.3435 19.8103C56.4325 20.6814 55.197 21.2173 53.8367 21.2173C53.7994 21.2173 53.7629 21.2165 53.7254 21.2157C53.6881 21.2165 53.6499 21.2173 53.6126 21.2173C52.2235 21.2173 51.1281 20.8582 50.3265 20.139C49.5257 19.4189 49.125 18.3407 49.125 16.9023V8.50813C49.125 8.3375 49.2643 8.1983 49.4358 8.1983H51.6103C51.7818 8.1983 51.9201 8.33756 51.9201 8.50813V16.1669C51.9532 17.1637 52.1655 17.8872 52.5577 18.3365C52.95 18.7865 53.5631 19.0106 54.3968 19.0106C54.8706 19.0106 55.296 18.9249 55.6714 18.7533C56.0475 18.5817 56.3667 18.3448 56.6274 18.0426C56.8889 17.7395 57.0936 17.3846 57.2404 16.9761C57.3873 16.5668 57.4612 16.1337 57.4612 15.6761V8.50807C57.4612 8.33744 57.6004 8.19824 57.771 8.19824H59.9463C60.117 8.19824 60.2563 8.3375 60.2563 8.50807H60.2567H60.2568Z" fill="black"/>
<path d="M84.6137 3.40887V9.16065C84.6137 9.29677 84.4505 9.36726 84.3523 9.27288C83.8865 8.82545 83.3353 8.46642 82.7258 8.22192C82.7056 8.21226 82.684 8.20266 82.6607 8.19299C81.2712 7.61407 79.5105 7.92188 79.5105 7.92188L79.5111 7.92295C79.1114 7.98419 78.7159 8.08853 78.3248 8.23811C77.6629 8.49173 77.0744 8.88782 76.5595 9.42726C76.0446 9.9667 75.6315 10.6532 75.3213 11.4868C75.0106 12.3205 74.8555 13.3096 74.8555 14.4536C74.8555 15.4017 74.9781 16.2886 75.2233 17.1138C75.4685 17.9394 75.8362 18.6547 76.3268 19.2591C76.8171 19.864 77.4339 20.3422 78.178 20.6934C78.9215 21.0447 79.792 21.2205 80.7892 21.2205C80.8147 21.2205 80.8397 21.2189 80.8653 21.2186C80.9062 21.2195 80.9469 21.2205 80.988 21.2205C82.3507 21.2205 83.5876 20.6832 84.4992 19.8092C84.5978 19.7147 84.7613 19.784 84.7613 19.9206V20.567C84.7613 20.7383 84.9002 20.8772 85.0716 20.8772H87.0992C87.2705 20.8772 87.4095 20.7384 87.4095 20.567V3.40887C87.4095 3.2376 87.2706 3.09863 87.0992 3.09863H84.9244C84.7532 3.09863 84.6142 3.23748 84.6142 3.40887H84.6137ZM78.4963 17.6655C78.2101 17.2572 77.9975 16.7913 77.8588 16.2681C77.7197 15.7451 77.6504 15.2137 77.6504 14.6744C77.6504 14.1024 77.7117 13.5428 77.8343 12.9949C77.957 12.4475 78.1612 11.9571 78.4472 11.5238C78.733 11.0909 79.1009 10.7392 79.5507 10.4696C80 10.1998 80.5516 10.0651 81.2057 10.0651C82.2846 10.0651 83.1384 10.4574 83.7679 11.2419C84.397 12.0265 84.7119 13.1218 84.7119 14.5274C84.7119 15.0833 84.6422 15.6269 84.5035 16.1579C84.3644 16.6893 84.1518 17.1675 83.866 17.5922C83.5798 18.0174 83.2121 18.3608 82.7626 18.622C82.3128 18.8836 81.7776 19.0143 81.1567 19.0143C80.5518 19.0143 80.0289 18.8917 79.5875 18.6464C79.1462 18.4012 78.7823 18.0744 78.4964 17.6657L78.4963 17.6655Z" fill="black"/>
<path d="M164.128 20.8671H161.439C161.313 20.8671 161.201 20.7879 161.159 20.6692L159.633 16.3657C159.592 16.247 159.478 16.1679 159.353 16.1679H152.686C152.561 16.1679 152.449 16.2468 152.406 16.3657L150.881 20.6692C150.838 20.7879 150.726 20.8671 150.601 20.8671H148.036C147.827 20.8671 147.684 20.6583 147.758 20.4635L153.988 4.23202C154.236 3.57809 154.87 3.11377 155.611 3.11377H156.499C157.236 3.11377 157.898 3.56808 158.163 4.2565L164.405 20.4634C164.481 20.6579 164.336 20.867 164.128 20.867L164.128 20.8671ZM158.605 13.4109L156.32 6.85458C156.278 6.74205 156.17 6.66137 156.043 6.66137C155.918 6.66137 155.812 6.74004 155.769 6.84983L153.462 13.4097C153.394 13.6031 153.537 13.8055 153.742 13.8055H158.324C158.529 13.8055 158.672 13.6037 158.605 13.4109Z" fill="#141414"/>
<path d="M178.482 12.6402C179.413 13.5159 179.995 14.7589 179.995 16.1383V20.5572C179.995 20.7281 179.856 20.8669 179.685 20.8669H177.659C177.488 20.8669 177.349 20.7281 177.349 20.5572V16.529C177.349 15.2122 176.29 13.8585 174.976 13.8386C174.958 13.8389 174.938 13.8414 174.92 13.8414H169.007C168.852 13.8414 168.726 13.9672 168.726 14.122V20.5517C168.726 20.7229 168.587 20.8614 168.416 20.8614H166.243C166.073 20.8614 165.934 20.7224 165.934 20.5511V5.16508C165.941 4.4233 166.337 3.77548 166.926 3.41147C167.228 3.20332 167.579 3.09814 167.955 3.09814H174.816C177.469 3.09814 179.619 5.24903 179.619 7.9023V9.14256C179.619 10.3239 179.182 11.4034 178.462 12.2289C178.356 12.3508 178.364 12.5291 178.482 12.6403L178.482 12.6402ZM176.827 8.93304V8.14591C176.827 6.81915 175.752 5.74383 174.425 5.74383H169.016C168.855 5.74383 168.726 5.87289 168.726 6.03255V11.0462C168.726 11.2059 168.855 11.3349 169.016 11.3349H174.425C175.752 11.3349 176.827 10.2596 176.827 8.9331V8.93304Z" fill="#141414"/>
<path d="M109.57 20.8779C109.4 20.8779 109.262 20.74 109.262 20.5697V3.44836C109.262 3.27815 109.4 3.14014 109.57 3.14014H111.736C111.906 3.14014 112.044 3.27815 112.044 3.44836V20.5697C112.044 20.7399 111.906 20.8779 111.736 20.8779H109.57Z" fill="#141414"/>
<path d="M125.787 8.24701C125.958 8.24701 126.096 8.38527 126.096 8.55536V20.558C126.096 20.7281 125.957 20.8664 125.787 20.8664H123.77C123.6 20.8664 123.462 20.7281 123.462 20.558V19.9148C123.462 19.7791 123.299 19.71 123.202 19.8035C122.295 20.6731 121.064 21.2078 119.709 21.2078C119.668 21.2078 119.627 21.207 119.587 21.206C119.562 21.2063 119.536 21.2078 119.511 21.2078C118.519 21.2078 117.653 21.0327 116.914 20.6834C116.174 20.3341 115.56 19.8584 115.073 19.2566C114.585 18.6557 114.219 17.944 113.975 17.1228C113.731 16.3023 113.609 15.4201 113.609 14.477C113.609 13.3394 113.764 12.3555 114.073 11.526C114.382 10.6969 114.793 10.0141 115.304 9.47743C115.816 8.94066 116.402 8.54658 117.06 8.29462C117.449 8.14552 117.843 8.04194 118.24 7.98112L118.24 7.97975C118.24 7.97975 119.991 7.6736 121.373 8.24938C121.396 8.25917 121.417 8.26859 121.438 8.27808C122.043 8.52127 122.591 8.87769 123.054 9.32222C123.152 9.4163 123.316 9.34807 123.316 9.21183V8.55548C123.316 8.38515 123.454 8.24713 123.624 8.24713L125.787 8.24701H125.787ZM123.413 14.5499C123.413 13.1518 123.1 12.062 122.474 11.2817C121.848 10.5012 120.999 10.1111 119.926 10.1111C119.275 10.1111 118.727 10.2455 118.28 10.5134C117.833 10.7816 117.467 11.1314 117.182 11.5619C116.898 11.9931 116.695 12.4805 116.573 13.0252C116.451 13.5702 116.39 14.1269 116.39 14.6959C116.39 15.2326 116.459 15.7608 116.597 16.2811C116.735 16.8018 116.946 17.2651 117.231 17.6711C117.515 18.0775 117.877 18.4028 118.317 18.6467C118.756 18.8903 119.276 19.0122 119.877 19.0122C120.495 19.0122 121.027 18.8823 121.474 18.6221C121.921 18.3623 122.287 18.021 122.572 17.5981C122.856 17.1754 123.067 16.7001 123.206 16.1714C123.344 15.6435 123.413 15.1025 123.413 14.5498V14.5499Z" fill="#141414"/>
<path d="M142.204 7.89844C143.539 7.89844 144.576 8.22421 145.317 8.87487C146.058 9.52619 146.428 10.6168 146.428 12.1466V20.555C146.428 20.7247 146.291 20.8624 146.121 20.8624H143.952C143.783 20.8624 143.645 20.7248 143.645 20.555V13.4893C143.645 12.985 143.629 12.5247 143.596 12.1098C143.564 11.6947 143.47 11.3372 143.316 11.0357C143.161 10.7345 142.929 10.5027 142.62 10.3397C142.31 10.1773 141.887 10.0957 141.35 10.0957C140.406 10.0957 139.722 10.3888 139.299 10.9749C138.876 11.5607 138.664 12.391 138.664 13.465V20.5553C138.664 20.725 138.527 20.8627 138.357 20.8627H136.189C136.019 20.8627 135.881 20.7251 135.881 20.5553V12.757C135.881 11.8782 135.722 11.2148 135.405 10.7672C135.088 10.3198 134.506 10.0959 133.659 10.0959C133.301 10.0959 132.955 10.1692 132.622 10.3156C132.288 10.4622 131.995 10.6739 131.743 10.9502C131.49 11.2272 131.287 11.5691 131.132 11.9757C130.977 12.3826 130.901 12.8466 130.901 13.3671V20.5553C130.901 20.725 130.763 20.8627 130.593 20.8627H128.425C128.255 20.8627 128.117 20.7251 128.117 20.5553V8.54779C128.117 8.37812 128.255 8.24028 128.425 8.24028H130.446C130.617 8.24028 130.754 8.378 130.754 8.54809V9.18802C130.754 9.32355 130.916 9.39303 131.014 9.29948C131.918 8.43272 133.145 7.89974 134.496 7.89974C134.533 7.89974 134.57 7.90057 134.606 7.90164H134.623V7.90004H134.615C134.646 7.89974 134.677 7.89879 134.709 7.89879C134.739 7.89879 134.769 7.89945 134.798 7.90004H134.82C135.543 7.91628 136.218 8.08608 136.845 8.4112C137.429 8.71373 137.862 9.1633 138.146 9.75965C138.17 9.81177 138.224 9.84811 138.286 9.84811C138.335 9.84811 138.379 9.82451 138.407 9.78823C138.842 9.23658 139.334 8.79336 139.885 8.46023C140.503 8.08566 141.276 7.89856 142.204 7.89856L142.204 7.89844Z" fill="#141414"/>
<path d="M107.061 12.6078V17.6308C107.061 19.4242 105.607 20.878 103.814 20.878H100.288C95.9588 20.878 92.4492 17.3684 92.4492 13.0389V10.9788C92.4492 6.64973 95.9587 3.14014 100.288 3.14014H105.192C105.356 3.14014 105.489 3.27311 105.489 3.43698V5.48945C105.489 5.65343 105.356 5.78641 105.192 5.78641H100.708C97.6882 5.78641 95.2399 8.23479 95.2399 11.255V12.5394C95.2399 15.6852 97.7899 18.2352 100.936 18.2352H102.707C103.571 18.2352 104.272 17.5348 104.272 16.6709V13.3825C104.272 13.2184 104.139 13.0855 103.975 13.0855H100.401C100.237 13.0855 100.104 12.9525 100.104 12.7883V10.8869C100.104 10.723 100.237 10.59 100.401 10.59H105.043C106.157 10.59 107.061 11.4935 107.061 12.6079L107.061 12.6078Z" fill="#141414"/>
</g>
<defs>
<clipPath id="clip0_27661_28717">
<rect width="180" height="29.6428" fill="white"/>
</clipPath>
</defs>
</svg>
